<svg aria-hidden="true" style="position:absolute;width:0;height:0" xmlns="http://www.w3.org/2000/svg" overflow="hidden"><defs><symbol id="mail" viewBox="0 0 43 32"><path fill="var(#757575)" d="M38.667 0H4C1.795 0 0 1.795 0 4v24c0 2.205 1.795 4 4 4h34.667c2.205 0 4-1.795 4-4V4c0-2.205-1.795-4-4-4zm0 2.667c.181 0 .355.037.512.104L21.334 18.238 3.489 2.771c.151-.065.327-.104.512-.104h34.667zm0 26.666H4A1.333 1.333 0 012.667 28V5.587l17.792 15.421c.233.203.539.327.875.327s.642-.124.876-.328l-.002.001L40 5.587V28c0 .736-.597 1.333-1.333 1.333z"/></symbol><symbol id="smartphone" viewBox="0 0 23 32"><path d="M19.429 0h-16c-1.891 0-3.429 1.346-3.429 3v26c0 1.654 1.538 3 3.429 3h16c1.891 0 3.429-1.346 3.429-3v-26c0-1.654-1.538-3-3.429-3zM3.429 2h16c0.631 0 1.143 0.448 1.143 1v21h-18.286v-21c0-0.552 0.512-1 1.143-1zM19.429 30h-16c-0.631 0-1.143-0.448-1.143-1v-3h18.286v3c0 0.552-0.512 1-1.143 1z"></path><path d="M5.38 27.293c0.446 0.391 0.446 1.024 0 1.415s-1.17 0.391-1.616 0c-0.446-0.391-0.446-1.024 0-1.415s1.17-0.391 1.616 0z"></path></symbol><symbol id="icon-group" viewBox="0 0 25 32"><path d="M10.532 1.806h-.084a9.985 9.985 0 00-.388-.014h-.28c-.244 0-.494.006-.741.018l-.028-.001-.029.001h.001a17.353 17.353 0 00-6.576 1.696l.104-.045-.266.128v13.626l.623-.212a23.32 23.32 0 011.731-.513c1.488-.398 3.202-.638 4.967-.661h.014v1.79c-.223.001-.439.007-.655.018h-.052a20.051 20.051 0 00-3.971.619l.139-.031a19.399 19.399 0 00-4.666 1.83l.1-.051V2.529A17.896 17.896 0 015.14.608L5.267.58a17.862 17.862 0 014.51-.582h.267c.314.008.622.022.91.044.829.06 1.597.187 2.339.378l-.09-.02v1.762a13.17 13.17 0 00-2.134-.326l-.045-.003-.044-.004c-.152-.013-.304-.026-.446-.026zm3.101 1.801c.391.03.796.044 1.205.044a19.413 19.413 0 004.881-.639l-.135.03a19.492 19.492 0 004.665-1.831l-.101.051v17.163a17.972 17.972 0 01-4.664 1.921l-.127.028a17.962 17.962 0 01-4.511.581h-.115c-1.177 0-2.319-.147-3.409-.425l.095.021V3.276c.265.062.537.118.814.164.455.077.934.133 1.401.167zm8.734.133l-.623.209c-.572.193-1.151.365-1.731.518-1.551.415-3.332.657-5.169.663h-.004c-.406 0-.78-.011-1.141-.034l-.497-.033V19.08l.426.037c.395.035.803.052 1.214.052a16.554 16.554 0 004.189-.553l-.116.026a16.96 16.96 0 003.285-1.189l-.102.044.266-.128V3.739zM1.684 25.977a.916.916 0 00-.661-.281l-.034.001h.002-.014c-.139 0-.272.028-.393.078l.007-.003a.904.904 0 00-.51.512l-.002.006a1.001 1.001 0 00-.071.386v2.335c-.006.164.026.328.092.479.055.12.135.226.234.313a.824.824 0 00.32.166c.114.031.231.048.349.048a.985.985 0 00.968-.982v-.261H1.36v.222c0 .07-.013.136-.037.198l.001-.004a.38.38 0 01-.089.132.426.426 0 01-.255.089.308.308 0 01-.286-.125l-.001-.001a.548.548 0 01-.082-.289l.001-.024v.001-2.177a.74.74 0 01.075-.349.31.31 0 01.262-.143l.038.002H.986h.012c.107 0 .201.052.26.131l.001.001a.493.493 0 01.101.3v.014-.001.202h.604v-.238-.011c0-.143-.027-.28-.077-.405l.003.007a.955.955 0 00-.205-.329zm3.626-.026a1.051 1.051 0 00-1.058-.191.965.965 0 00-.557.511l-.002.006a1.08 1.08 0 00-.089.452v2.239c-.004.158.026.314.089.458a.888.888 0 00.236.313.964.964 0 00.322.197 1.049 1.049 0 001.059-.198l-.001.001a.948.948 0 00.23-.313c.063-.144.093-.301.089-.458v-2.239-.02c0-.156-.033-.305-.092-.439l.003.007a1.016 1.016 0 00-.23-.327zm-.285 3.018l.002.035a.398.398 0 01-.123.289.446.446 0 01-.575 0l.001.001a.398.398 0 01-.121-.326v.002-2.239l-.001-.034a.4.4 0 01.123-.289.446.446 0 01.575 0l-.001-.001a.398.398 0 01.121.326v-.002 2.24zm5.047 1v-4.24h-.586l-.771 2.244h-.01l-.777-2.244h-.58v4.239h.606V27.39h.011l.593 1.823h.302l.598-1.823h.01v2.578h.606zm3.441-3.942a.834.834 0 00-.342-.232 1.31 1.31 0 00-.416-.066h-.024.001-.9v4.24h.604v-1.656h.311c.189.009.376-.031.545-.116a.88.88 0 00.329-.32l.002-.004a1 1 0 00.138-.369c.021-.133.033-.287.033-.444v-.04.002a2.426 2.426 0 00-.059-.606.906.906 0 00-.223-.39zm-.312 1.292a.538.538 0 01-.057.224l.001-.003a.342.342 0 01-.154.147l-.002.001a.617.617 0 01-.254.054l-.033-.001h.002-.276V26.3h.311l.029-.001c.088 0 .172.02.247.055l-.004-.002a.35.35 0 01.141.154l.001.002a.62.62 0 01.053.236v.282c0 .098.006.201 0 .291H13.2zm3.173-1.59h-.495l-.934 4.24h.604l.177-.911h.823l.178.911h.604l-.958-4.24zm-.557 2.752l.297-1.537h.011l.295 1.537h-.604zm4.46-.198h-.011l-.912-2.554h-.581v4.24h.604v-2.55h.012l.923 2.549h.568v-4.239h-.604v2.554zm3.691-2.554l-.486 1.686h-.012l-.486-1.686h-.639l.83 2.448v1.791h.604v-1.791l.83-2.447h-.64zM0 31.166h.291v.817h.198v-.817h.289v-.167H0v.168zm2.447-.168l-.382.985h.21l.081-.224h.392l.084.224h.215l-.391-.985h-.21zm-.03.595l.134-.365.134.365h-.268zm2.449.027h.228v.127a.378.378 0 01-.234.083h-.014a.25.25 0 01-.195-.094.406.406 0 01-.073-.234l.001-.023v.001c0-.219.095-.329.283-.329l.021-.001c.097 0 .178.067.201.157v.001l.194-.038c-.042-.192-.18-.289-.417-.289h-.013a.492.492 0 00-.331.127.48.48 0 00-.141.38v-.002.023c0 .132.048.254.127.347l-.001-.001c.087.09.209.146.343.146L4.877 32h-.001.016c.155 0 .296-.06.402-.157v-.388h-.426v.166zm2.471-.622h-.199v.985h.689v-.167h-.49v-.817zm2.089 0h-.199v.985h.199v-.985zm2.043.657l-.404-.657h-.193v.985h.185v-.643l.396.643h.198v-.985h-.182v.658zm1.846-.106h.49v-.167h-.49v-.215h.527v-.168h-.727v.985h.747v-.167h-.548v-.266zm4.477-.163h-.388v-.388h-.197v.984h.197v-.431h.388v.431h.198v-.985h-.198v.388zm1.857.163h.492v-.167h-.492v-.215h.529v-.168h-.726v.985h.746v-.167h-.548v-.266zm2.519.001c.171-.027.258-.118.258-.274a.23.23 0 00-.096-.219h-.001a.555.555 0 00-.25-.059l-.04.001h.002-.417v.984h.198v-.412h.055c.039 0 .076.008.109.023l-.002-.001a.201.201 0 01.07.072l.215.313h.236l-.12-.192a.704.704 0 00-.215-.235l-.002-.002zm-.199-.137h-.146v-.247h.156a.515.515 0 01.205.024l-.004-.001a.13.13 0 01-.009.2.537.537 0 01-.164.025l-.039-.001h.002zm2.099.136h.49v-.167h-.49v-.215h.529v-.168h-.729v.985h.747v-.167h-.548v-.266z"/></symbol><symbol id="icon-union" viewBox="0 0 28 32"><path d="M4.085 0l4.771 4.517-8.857-.005v21.915h23.149v-8.379l4.766 4.512V.001H4.084zm18.854 17.517L9.411 4.71h13.528v12.807zm-4.2 5.703H3.663V8.482h1.066v13.74H18.74v.997zM7.224 29.345l-.557 1.147-.557-1.147h-.467l.813 1.529v.891h.422v-.891l.811-1.529h-.465zm.7 2.42l.196-.564h.938l.197.564h.439l-.916-2.42H8.4l-.914 2.42h.437zm.664-1.906l.351 1.004h-.701l.351-1.004zm2.218.945a.544.544 0 00-.091.303v.004c0 .204.072.37.214.497s.336.19.575.19a1 1 0 00.618-.195l.136.161h.468l-.355-.421c.14-.191.209-.435.209-.733h-.351a.973.973 0 01-.101.444l-.468-.552.165-.12a.922.922 0 00.249-.249l.002-.003a.53.53 0 00.076-.275v-.004-.009a.495.495 0 00-.169-.374h-.001a.61.61 0 00-.408-.157h-.025.001c-.195 0-.35.056-.465.166s-.173.259-.173.449c0 .078.018.157.054.241.038.083.104.184.197.302-.179.129-.3.24-.36.334zm1.092.536a.613.613 0 01-.382.136h-.02a.395.395 0 01-.27-.106.36.36 0 01-.108-.259v-.014.001c0-.129.067-.245.2-.346l.052-.037.528.624zm-.434-1.073c-.114-.141-.172-.257-.172-.351 0-.081.024-.148.07-.201a.239.239 0 01.178-.081h.01-.001.009c.067 0 .127.026.173.068a.214.214 0 01.072.161v.009a.3.3 0 01-.103.226l-.052.041-.184.127zm3.94 1.315c.166-.145.261-.347.286-.605h-.419c-.022.173-.075.296-.158.37s-.208.112-.372.112c-.18 0-.318-.069-.412-.206s-.14-.337-.14-.599v-.214c.003-.259.052-.453.15-.587a.494.494 0 01.422-.201c.157 0 .276.039.357.116s.133.202.153.376h.419c-.027-.265-.121-.47-.285-.615s-.378-.218-.645-.218a.978.978 0 00-.525.142.925.925 0 00-.345.396l-.002.006a1.396 1.396 0 00-.122.576v.03-.001.226c.003.223.045.418.125.587s.193.298.339.39a.955.955 0 00.511.136c.276 0 .497-.072.663-.216zm2.471-.339c.082-.18.123-.388.123-.625v-.134-.024c0-.216-.047-.421-.131-.605l.004.009a.932.932 0 00-.35-.406l-.004-.002c-.152-.095-.326-.143-.524-.143s-.372.048-.525.144a.939.939 0 00-.354.414c-.079.175-.125.38-.125.595v.032-.002.136c.001.232.043.436.126.613a.95.95 0 00.356.411.98.98 0 00.525.143.971.971 0 00.526-.143.941.941 0 00.352-.413zm-.45-1.369c.102.143.152.349.152.618v.126c0 .272-.05.48-.151.622a.49.49 0 01-.429.213h-.017a.503.503 0 01-.413-.216l-.001-.002c-.104-.145-.155-.351-.155-.617v-.14c.002-.26.054-.462.156-.603a.498.498 0 01.409-.215h.018-.001c.187 0 .33.072.431.214z"/></symbol><symbol id="icon-company" viewBox="0 0 34 32"><path d="M5.643 31.315c.012 0 .024.003.035.008s.021.011.03.018l.166.158c-.13.129-.289.232-.468.302a1.78 1.78 0 01-.62.109l-.045-.001h.002a1.742 1.742 0 01-.622-.101 1.365 1.365 0 01-.47-.286l.001.001a1.294 1.294 0 01-.301-.432l-.003-.008a1.442 1.442 0 01-.106-.548v-.018-.028c0-.388.168-.737.436-.977l.001-.001a1.52 1.52 0 01.498-.287 1.96 1.96 0 01.642-.101h.04c.199 0 .39.034.568.096l-.012-.004c.165.062.316.149.447.255l-.139.169a.143.143 0 01-.035.03h-.001a.098.098 0 01-.048.013h-.008a.132.132 0 01-.062-.018h.001l-.074-.046-.104-.058a1.182 1.182 0 00-.321-.1l-.007-.001a1.376 1.376 0 00-.23-.018h-.019.001-.015c-.16 0-.313.028-.455.079l.009-.003a1.07 1.07 0 00-.363.214l.001-.001a.977.977 0 00-.235.339 1.117 1.117 0 00-.085.432v.017-.001.019c0 .157.031.307.088.444l-.003-.008a.953.953 0 00.576.548c.136.049.281.073.427.072.085.001.17-.004.254-.014.211-.022.4-.106.55-.234l-.001.001a.133.133 0 01.078-.029zm4.798-.798v.017c0 .197-.041.384-.116.553l.003-.009a1.24 1.24 0 01-.311.435l-.001.001c-.138.123-.302.22-.481.283l-.01.003a2.03 2.03 0 01-1.278-.004l.014.004a1.471 1.471 0 01-.489-.288l.001.001a1.28 1.28 0 01-.313-.432l-.003-.008a1.454 1.454 0 01.004-1.134l-.004.01c.071-.165.178-.315.316-.442a1.45 1.45 0 01.488-.277 2.003 2.003 0 011.278.004l-.014-.004c.184.065.351.162.49.286a1.296 1.296 0 01.426 1zm-.436 0v-.024a1.19 1.19 0 00-.082-.436l.003.008a.935.935 0 00-.566-.548l-.007-.002a1.455 1.455 0 00-.928.003l.01-.003a.997.997 0 00-.352.214.914.914 0 00-.223.331l-.002.006a1.321 1.321 0 00.003.911l-.003-.009c.101.261.309.46.569.547l.007.002c.296.097.622.097.918 0a.97.97 0 00.35-.211.933.933 0 00.222-.338c.056-.145.082-.298.079-.451zm3.71.473l.043.101c.017-.036.031-.069.048-.101.019-.039.037-.072.056-.103l-.002.004 1.061-1.677c.021-.029.04-.047.061-.053s.047-.009.073-.009h.015-.001.314v2.728h-.372v-2.09a.68.68 0 010-.096v.002l-1.069 1.701a.158.158 0 01-.062.061h-.001a.19.19 0 01-.09.023h-.064a.183.183 0 01-.09-.023h.001a.15.15 0 01-.061-.061v-.001l-1.099-1.711v2.189h-.359v-2.722h.328c.026 0 .051.003.075.01h-.002c.026.011.046.03.058.053l1.084 1.678c.02.028.038.06.053.094l.001.004zm3.995-.135v1.021h-.414v-2.723h.926c.175-.003.349.018.517.059.134.034.259.091.366.17.089.07.159.16.205.262l.002.004c.05.111.073.23.071.349v.017a.755.755 0 01-.299.603l-.002.001a1.062 1.062 0 01-.368.18c-.14.04-.301.064-.468.064h-.035l-.501-.008zm0-.293h.503c.109.002.218-.013.322-.041a.69.69 0 00.234-.119l-.002.001a.522.522 0 00.191-.404v-.007l.001-.029a.453.453 0 00-.043-.195l.001.003a.529.529 0 00-.144-.185l-.001-.001a.888.888 0 00-.562-.146h.003-.503v1.122zm5.584 1.318h-.334a.15.15 0 01-.086-.026h.001a.161.161 0 01-.054-.062v-.001l-.282-.658H21.12l-.293.658a.156.156 0 01-.141.088h-.333l1.246-2.728h.432l1.263 2.728zm-2.057-1.013h1.172l-.494-1.11a1.875 1.875 0 01-.094-.256l-.048.142a.876.876 0 01-.046.116l-.49 1.108zm3.852-1.701a.173.173 0 01.062.048l1.818 2.056v-2.117h.372v2.728h-.212a.204.204 0 01-.082-.017h.001a.221.221 0 01-.066-.05l-1.816-2.054.001.047-.002.049v-.002 2.027h-.372v-2.728h.22c.025 0 .051.005.075.013zm5.313 1.629v1.083h-.415v-1.082l-1.149-1.643h.381a.16.16 0 01.081.023h-.001a.234.234 0 01.056.062l.718 1.06a1.159 1.159 0 01.128.241l.053-.117c.021-.043.044-.084.071-.124l.709-1.067a.293.293 0 01.053-.058.137.137 0 01.082-.027h.384l-1.15 1.65zm-16.893-6.219c.181.02.363.036.549.05 2.803-1.09 5.174-2.872 6.818-5.126s2.485-4.878 2.421-7.546l-3.09-2.683c.629 2.84.335 5.775-.848 8.478s-3.208 5.067-5.849 6.827z"/><path d="M12.407 24.451l.083.015c2.822-1.755 4.973-4.203 6.176-7.031s1.402-5.904.571-8.83l-4.4-3.822c1.779 3.142 2.496 6.659 2.065 10.141-.43 3.482-1.989 6.786-4.495 9.528zm14.921-9.345c-.747 2.931-2.563 5.574-5.177 7.538a16.213 16.213 0 01-2.367 1.49l-.092.043c2.129-.543 4.085-1.504 5.718-2.808s2.901-2.917 3.703-4.714l-1.784-1.549z"/><path d="M26.628 14.674l-2.54-2.207c-.049 2.517-.872 4.976-2.385 7.122s-3.66 3.902-6.217 5.084h.012c.57 0 1.139-.03 1.705-.088 2.39-.848 4.502-2.197 6.146-3.926s2.771-3.785 3.278-5.985zM12.774 3.17L9.743.534c-2.709.91-5.039 2.509-6.686 4.588S.526 9.664.518 12.188c.01 2.789 1.09 5.495 3.07 7.69 1.979 2.194 4.744 3.754 7.858 4.43 2.779-2.942 4.407-6.578 4.646-10.379s-.924-7.57-3.319-10.758zM33.63 14.268c-.011-3.308-1.528-6.478-4.221-8.818s-6.342-3.658-10.15-3.668h-.028c-1.831 0-3.59.305-5.231.867l.114-.034L32.67 18.737c.605-1.313.958-2.849.96-4.468v-.001z"/></symbol><symbol id="icon-foster" viewBox="0 0 65 32"><path d="M10.016 9.983h-.002c-1.827 0-3.308 1.316-3.308 2.94v.002c0 1.624 1.481 2.94 3.308 2.94h.002c1.827 0 3.308-1.317 3.308-2.94v-.002c0-1.624-1.481-2.941-3.308-2.941zm24.418-.939c-.005-2.255-1.016-4.418-2.81-6.012S27.398.539 24.861.534c-2.539.004-4.972.902-6.767 2.497s-2.806 3.757-2.811 6.013v12.437s19.15-1.896 19.152-12.434v-.002zM0 25.562c.005 1.57.709 3.073 1.957 4.183s2.94 1.735 4.706 1.739c1.765-.005 3.457-.63 4.706-1.739s1.952-2.613 1.957-4.181V16.91S.002 18.23.002 25.562zm6.662 1.55c-.345 0-.682-.091-.969-.261a1.617 1.617 0 01-.638-.686l-.004-.009a1.394 1.394 0 01-.097-.904l-.002.009a1.5 1.5 0 01.477-.794 1.81 1.81 0 01.882-.423l.011-.002a1.939 1.939 0 011.021.092l-.013-.004c.319.117.592.316.783.571s.294.555.294.861c.001.204-.043.407-.131.596a1.555 1.555 0 01-.376.503l-.002.001a1.77 1.77 0 01-.567.338 1.907 1.907 0 01-.668.119h-.001v-.006zm13.466-.854h-1.286v1.328h-.67v-3.251h2.117v.542h-1.447v.84h1.286v.54zm3.218-.223c0 .32-.056.6-.169.841s-.276.427-.488.558a1.32 1.32 0 01-.698.197h-.025.001c-.27 0-.51-.065-.722-.194a1.296 1.296 0 01-.487-.546l-.003-.008a1.882 1.882 0 01-.177-.804v-.028.001-.16c0-.32.058-.602.172-.844a1.285 1.285 0 011.212-.757c.271 0 .51.066.721.197.211.13.374.316.489.56.116.242.174.523.174.841v.145zm-.678-.148c0-.341-.061-.6-.183-.777a.596.596 0 00-.496-.266l-.028.001h.001l-.025-.001a.597.597 0 00-.494.262l-.001.002c-.122.174-.184.43-.185.768v.158c0 .331.061.589.183.772s.297.274.527.274l.026.001a.59.59 0 00.49-.261l.001-.002c.12-.177.181-.434.183-.773v-.158zm2.85.846l.001-.019a.34.34 0 00-.133-.27l-.001-.001c-.089-.069-.25-.14-.482-.214a3.473 3.473 0 01-.57-.232l.019.009c-.37-.2-.554-.469-.554-.806 0-.175.049-.332.147-.469a.975.975 0 01.427-.324c.186-.077.395-.116.625-.116.232 0 .439.042.621.127a.97.97 0 01.421.355.926.926 0 01.152.522h-.67a.434.434 0 00-.14-.346c-.094-.084-.226-.125-.395-.125-.164 0-.291.035-.382.105a.325.325 0 00-.136.265v.008c0 .106.053.194.158.266.107.071.264.138.471.2.381.114.658.257.833.427s.261.381.261.634c0 .281-.107.503-.32.663s-.498.239-.859.239c-.25 0-.478-.046-.683-.137a1.11 1.11 0 01-.469-.373l-.002-.003a.962.962 0 01-.16-.533v-.022.001h.671c0 .358.214.538.643.538a.634.634 0 00.373-.096.32.32 0 00.134-.259v-.013.001zm3.574-1.855h-.995v2.708h-.67v-2.708h-.981v-.542h2.647v.542zm2.339 1.3h-1.285v.871h1.509v.538h-2.178v-3.251h2.174v.542h-1.505v.775h1.286v.524zm1.819.218h-.533v1.19h-.67v-3.251h1.208c.384 0 .68.086.888.257s.312.413.312.725a.996.996 0 01-.145.556.977.977 0 01-.429.35l-.006.002.702 1.328v.03h-.718l-.61-1.189zm-.533-.542h.541c.168 0 .297-.042.39-.126a.46.46 0 00.139-.33l-.001-.026v.001c0-.154-.043-.274-.131-.362s-.219-.132-.4-.132h-.538v.975zm4.058.587v1.145h-.67v-3.251h1.268c.244 0 .459.045.643.134a.98.98 0 01.429.382c.099.164.149.35.149.56 0 .318-.11.57-.328.754-.218.183-.519.275-.904.275h-.587zm0-.542h.598c.178 0 .312-.042.404-.125a.454.454 0 00.141-.357l.001-.024a.534.534 0 00-.141-.363.527.527 0 00-.389-.152h-.614v1.021zm4.236.279h-1.285v.871h1.509v.538h-2.178v-3.251h2.174v.542h-1.505v.775h1.286v.524zm3.108-1.3h-.996v2.708h-.67v-2.708h-.982v-.542h2.648v.542zm2.339 1.3h-1.285v.871h1.509v.538h-2.179v-3.251h2.174v.542h-1.504v.775h1.285v.524zm1.819.218h-.533v1.19h-.67v-3.251h1.208c.384 0 .68.086.888.257s.312.413.312.725c0 .222-.049.408-.145.556a.982.982 0 01-.429.35l-.006.002.703 1.328v.03h-.718l-.61-1.189zm-.533-.542h.54c.168 0 .298-.042.39-.126a.46.46 0 00.139-.331l-.001-.025v.001a.484.484 0 00-.132-.362c-.086-.088-.219-.132-.399-.132h-.538v.975zm3.935.88l.001-.019a.34.34 0 00-.134-.271l-.001-.001c-.089-.069-.25-.14-.482-.214a3.473 3.473 0 01-.57-.232l.019.009c-.37-.2-.554-.469-.554-.806 0-.175.05-.332.147-.469a.975.975 0 01.427-.324c.186-.077.395-.116.625-.116.232 0 .439.042.621.127a.97.97 0 01.421.355.926.926 0 01.152.522h-.67a.434.434 0 00-.14-.346c-.094-.084-.226-.125-.395-.125-.164 0-.291.035-.382.105a.326.326 0 00-.137.265v.007c0 .106.053.194.159.266s.264.138.471.2c.381.114.658.257.833.427s.261.381.261.634c0 .281-.107.503-.32.663s-.499.239-.859.239c-.25 0-.478-.046-.683-.137a1.11 1.11 0 01-.469-.373l-.002-.003a.962.962 0 01-.16-.533v-.022.001h.671c0 .358.214.538.643.538a.634.634 0 00.373-.096.317.317 0 00.134-.26v-.013.001z"/></symbol><symbol id="icon-brand" viewBox="0 0 43 32"><path d="M3.239 26.373a.98.98 0 01.25.665.964.964 0 01-.092.466l.003-.006a1.057 1.057 0 01-.296.378l-.002.002a1.776 1.776 0 01-1.13.306h.006H.001V23.97h1.936a1.76 1.76 0 011.08.283l-.007-.004a.981.981 0 01.289.354.893.893 0 01.086.436.92.92 0 01-.225.644c-.15.168-.358.283-.59.33.262.044.499.172.667.361zM.92 25.737h.828a.843.843 0 00.526-.14.516.516 0 00.14-.184l.001-.003a.46.46 0 00.038-.185l-.002-.042v.002l.001-.035a.475.475 0 00-.04-.192l.001.003a.51.51 0 00-.138-.187l-.001-.001a.845.845 0 00-.545-.142h.003-.815v1.106zm1.435 1.616a.527.527 0 00.151-.19l.001-.003a.472.472 0 00.044-.202l-.001-.035v.002l.001-.031a.49.49 0 00-.047-.21l.001.003a.534.534 0 00-.154-.193l-.001-.001a.898.898 0 00-.565-.152h.003H.92v1.16h.88a.94.94 0 00.556-.146zm4.842.832l-1.076-1.648h-.405v1.648h-.927V23.97h1.755a1.824 1.824 0 011.225.362l-.005-.003a1.293 1.293 0 01.42.938c0 .307-.109.589-.291.808l.002-.002a1.461 1.461 0 01-.829.427l-.008.001 1.147 1.684H7.197zm-1.482-2.222h.758c.526 0 .79-.212.79-.638l.001-.034a.58.58 0 00-.045-.225l.001.004a.628.628 0 00-.15-.218.865.865 0 00-.6-.171h.003-.767l.009 1.283zm6.547 1.373h-1.846l-.326.849h-.972l1.695-4.168h1.051l1.689 4.168h-.971l-.319-.848zm-.247-.638l-.675-1.779-.675 1.779h1.349zm6.587 1.487h-.919l-2.063-2.866v2.866h-.918v-4.216h.918l2.063 2.883v-2.883h.919v4.216zm5.25-1.009c-.191.318-.48.577-.833.744a2.883 2.883 0 01-1.219.267l-.079-.001h.004-1.637v-4.215h1.637l.077-.001c.441 0 .859.096 1.235.267l-.019-.008c.352.163.642.419.832.735.189.343.288.722.288 1.106s-.099.763-.288 1.106zm-1.052-.101c.25-.261.404-.616.406-1.006 0-.369-.144-.726-.406-1.006a1.681 1.681 0 00-1.157-.358h.005-.639v2.729h.639a1.69 1.69 0 001.156-.361l-.004.003zM12.838.522s11.873 4.104 11.621 10.043V20.61s-11.864-4.106-11.617-10.045L12.838.522zm22.199 17.737a17.218 17.218 0 017.544-2.545v-3.146c-3.12 1.102-5.767 3.098-7.544 5.691z"/><path d="M33.69 19.207c1.835-3.384 5.017-5.995 8.891-7.297V2.849S25.672 8.695 26.029 17.153v14.302s.754-.261 1.939-.752c0-.457 0-.918.054-1.382.349-3.926 2.388-7.564 5.667-10.115z"/><path d="M32.082 24.52a13.62 13.62 0 01.592-2.928c-2.043 2.203-3.279 4.936-3.536 7.816-.025.272-.039.543-.045.824a47.103 47.103 0 003.524-1.703l-.273.133a13.57 13.57 0 01-.263-4.142zm.672.051a13.013 13.013 0 00.224 3.835l-.015-.084c4.62-2.531 9.811-6.442 9.61-11.168v-.412c-3.301.338-6.388 1.659-8.79 3.76a12.808 12.808 0 00-1.026 4.019l-.004.051z"/></symbol><symbol id="icon-tagline" viewBox="0 0 67 32"><path d="M33.724 15.223a2.084 2.084 0 01-.43-1.42v.006-2.051c0-.628.142-1.106.428-1.433.284-.327.774-.489 1.468-.488.652 0 1.116.139 1.389.417.299.355.444.789.411 1.226v.482h-1.166v-.489a2.465 2.465 0 00-.034-.477.464.464 0 00-.166-.283l-.001-.001a.672.672 0 00-.373-.112l-.052.002h.002a.712.712 0 00-.447.118l.003-.002a.546.546 0 00-.193.309l-.001.004c-.03.14-.047.302-.047.467v.042-.002 2.488c-.019.24.033.48.149.698a.55.55 0 00.23.168l.004.001a.633.633 0 00.305.039H35.2a.63.63 0 00.414-.114l-.002.001a.503.503 0 00.174-.299v-.003c.027-.165.04-.332.036-.498v-.505h1.167v.461a1.866 1.866 0 01-.406 1.293l.003-.004c-.268.304-.725.457-1.397.457s-1.179-.163-1.466-.501zm4.859.022c-.295-.32-.442-.784-.442-1.399v-2.157c0-.609.147-1.07.442-1.383s.787-.469 1.478-.467c.686 0 1.176.156 1.471.467.294.313.444.774.444 1.383v2.156c0 .609-.149 1.077-.449 1.398s-.787.481-1.466.481-1.181-.163-1.479-.479zm2.021-.518c.106-.199.154-.419.14-.638v-2.641a1.18 1.18 0 00-.14-.632l.003.006a.558.558 0 00-.234-.17l-.004-.001a.622.622 0 00-.312-.037h.003a.643.643 0 00-.313.038l.004-.002a.569.569 0 00-.239.171l-.001.001c-.107.195-.154.41-.14.626V14.1c-.014.22.033.439.14.639a.732.732 0 00.246.158.832.832 0 00.605-.002l-.006.002a.723.723 0 00.246-.158v-.013zm2.777-4.825h1.256l.944 3.979.967-3.979h1.222l.124 5.743h-.904l-.097-3.991-.932 3.991h-.725l-.966-4.006-.09 4.006h-.913l.114-5.743zm5.92 0h1.957c1.127 0 1.691.543 1.691 1.631 0 1.041-.594 1.562-1.781 1.56h-.666v2.552h-1.208l.007-5.744zm1.672 2.454a.93.93 0 00.665-.182.928.928 0 00.174-.649l.001-.063c0-.163-.022-.321-.062-.471l.003.013a.43.43 0 00-.089-.158.502.502 0 00-.149-.114l-.003-.001a1.24 1.24 0 00-.476-.094l-.066.002h.003-.469v1.717h.469zm3.719-2.454h1.297l1.331 5.743h-1.126l-.263-1.324h-1.157l-.27 1.324h-1.143l1.331-5.743zm1.108 3.753l-.452-2.411-.452 2.411h.903zm2.594-3.753h.846l1.618 3.276V9.902h1.003v5.743h-.804l-1.628-3.42v3.42h-1.036l.002-5.743zm5.815 3.552l-1.345-3.545h1.133l.821 2.278.77-2.278h1.109l-1.329 3.546v2.19h-1.159v-2.19zM35.59 18.156v.3h-.986v2.334h-.413v-2.334H33.2v-.3h2.389zm3.089 2.634h-.328a.141.141 0 01-.081-.025.137.137 0 01-.052-.06v-.001l-.285-.626h-1.367l-.284.626a.168.168 0 01-.044.071.144.144 0 01-.082.025h-.326l1.208-2.634h.42l1.223 2.624zm-2-.978h1.14l-.484-1.072a1.765 1.765 0 01-.086-.235l-.003-.014-.045.14-.044.11-.478 1.07zm4.083.719c.076.004.151.004.228 0a1.41 1.41 0 00.193-.031c.059-.012.117-.028.174-.048.053-.018.107-.042.161-.065v-.592h-.487a.095.095 0 01-.061-.022.06.06 0 01-.018-.021.048.048 0 01-.006-.024V19.523h.937v1.01a1.792 1.792 0 01-.496.211l-.013.003c-.1.026-.2.043-.302.055a3.774 3.774 0 01-.353.016h-.015c-.212 0-.416-.036-.606-.102l.013.004a1.499 1.499 0 01-.486-.277l.002.002a1.276 1.276 0 01-.308-.409l-.003-.008a1.3 1.3 0 01-.111-.529v-.019-.015c0-.193.04-.377.112-.543l-.003.009c.069-.156.176-.299.311-.417.138-.119.302-.211.484-.273.206-.068.427-.101.647-.098.112 0 .225.007.336.023a1.62 1.62 0 01.529.172c.074.041.144.087.211.137l-.116.163a.101.101 0 01-.039.035h-.001a.112.112 0 01-.055.014.156.156 0 01-.075-.021h.001a1.595 1.595 0 01-.126-.066l.007.004a1.098 1.098 0 00-.154-.069l-.008-.002a1.522 1.522 0 00-.213-.057l-.009-.001a1.749 1.749 0 00-.29-.023h-.017.001-.015c-.162 0-.317.027-.462.076l.01-.003a1.022 1.022 0 00-.356.208.944.944 0 00-.222.321l-.002.006a1.234 1.234 0 00.003.887l-.003-.008a.938.938 0 00.242.332c.099.09.219.161.352.208.154.046.316.063.479.052zm3.85-.041h1.319v.3h-1.722v-2.634h.412l-.009 2.334zm2.691.3h-.412v-2.634h.412v2.634zm1.537-2.621a.2.2 0 01.063.047l1.766 1.985-.002-.047.002-.049v.002-1.963h.36v2.645h-.222a.196.196 0 01-.077-.016h.001a.23.23 0 01-.065-.05l-1.764-1.984v2.048h-.346v-2.634h.215c.023 0 .047.004.068.012zm5.23-.013v.289h-1.463v.87h1.186v.279h-1.186v.9h1.463v.289h-1.889v-2.628h1.889zM10.782 1.889l18.343 4.496v15.757l-18.343-4.494V1.888zM9.605.545v17.868l20.693 5.075V5.622L9.605.546z"/><path d="M20.696 31.781L0 26.702V8.837l20.696 5.077v17.867z"/><path d="M9.948 1.686l18.103 4.44-7.698 6.649L2.246 8.333l7.702-6.647zM9.605.545L0 8.837l20.696 5.077 9.603-8.294L9.606.545zM21.86 30.776l8.439-7.288-8.439-2.069v9.358z"/></symbol><symbol id="icon-antenna" viewBox="0 0 70 70"><path fill="var(--color1, #212121)" d="M67.316 48.339l-18.47-18.605 2.05-10.097a4.557 4.557 0 001.658.319H52.626a4.724 4.724 0 10-4.44-3.107l-.01-.033-10.85 1.325L19.628.35a1.165 1.165 0 00-.824-.35 1.17 1.17 0 00-.817.34L14.68 3.63a1.164 1.164 0 000 1.65l1.78 1.805c-2.5 4.511-3.972 9.892-3.972 15.616 0 8.981 3.622 17.116 9.485 23.024l-.002-.002c.094.09.202.161.32.213-.07.359-.111.772-.114 1.195v13.536h-14A5.84 5.84 0 002.342 66.5v2.333c0 .645.523 1.167 1.167 1.167h53.667c.644 0 1.166-.522 1.166-1.167V66.5a5.84 5.84 0 00-5.833-5.833h-14v-5.998c2.193.46 4.428.694 6.669.7a32.333 32.333 0 0015.569-3.986l-.169.085 1.79 1.8c.216.221.513.347.823.35.306-.002.6-.124.817-.34l3.308-3.29a1.164 1.164 0 000-1.65zM50.925 13.635a2.333 2.333 0 111.645 3.987h-.008a2.334 2.334 0 01-1.633-3.987h-.004zM48.178 21.3l-1.309 6.444-2.571-2.587 3.88-3.857zm-1.325-1.973l-4.2 4.176-3.25-3.267 7.45-.909zM52.509 63a3.5 3.5 0 013.5 3.5v1.167H4.676V66.5a3.5 3.5 0 013.5-3.5h44.333zm-16.333-4.667v2.334H24.509v-2.334h11.667zM24.509 56v-8.867c0-2.83 2.617-5.133 5.833-5.133 3.217 0 5.834 2.303 5.834 5.133V56H24.509zm14-3.71v-5.157c0-4.117-3.663-7.466-8.167-7.466l-.128-.001a8.305 8.305 0 00-7.029 3.874l-.02.034a30.227 30.227 0 01-8.338-20.89c0-5.062 1.24-9.835 3.432-14.031l-.08.167 40.692 40.925c-3.987 2.071-8.705 3.286-13.707 3.286-2.36 0-4.656-.27-6.86-.782l.204.04zm24.695-1.496L17.142 4.461l1.65-1.645L36.15 20.272c.008 0 .013.015.021.021l28.688 28.856-1.655 1.645z"/><path fill="var(--color2, #2196f3)" d="M30.353 44.333h-.015a3.5 3.5 0 00-.006 7h.015a3.5 3.5 0 00.005-7zm.816 4.328a1.167 1.167 0 11-.827-1.994 1.166 1.166 0 01.817 1.993h.01z"/></symbol><symbol id="icon-astronaut" viewBox="0 0 70 70"><path fill="var(--color2, #2196f3)" d="M69.943 9.896a1.17 1.17 0 00-.935-.792l-.006-.001-4.18-.608-1.87-3.787c-.391-.798-1.7-.798-2.091 0l-1.87 3.787-4.18.608a1.168 1.168 0 00-.648 1.99l3.026 2.948-.714 4.162c-.075.438.105.88.463 1.142.363.263.837.296 1.23.088l3.738-1.966 3.738 1.966a1.168 1.168 0 001.692-1.237l.001.007-.714-4.162 3.025-2.949a1.168 1.168 0 00.293-1.204l.002.008zM64.556 12.8c-.275.267-.4.655-.335 1.033l.417 2.437-2.188-1.15a1.16 1.16 0 00-1.094.003l.006-.003-2.188 1.15.417-2.437a1.161 1.161 0 00-.334-1.032l-1.773-1.727 2.448-.355c.38-.055.708-.294.879-.639l1.094-2.216 1.094 2.216c.17.345.498.584.879.639l2.448.355-1.77 1.727zm-7.389 32.092h-2.333v2.334h2.333v-2.334zm0 4.668h-2.333v2.332h2.333V49.56zm2.333-2.334h-2.333v2.333H59.5v-2.333zm-4.666 0H52.5v2.333h2.334v-2.333zM49 57.726h-2.333v2.333H49v-2.333zm0 4.667h-2.333v2.333H49v-2.333zm2.334-2.333H49v2.333h2.334v-2.334zm-4.667 0h-2.334v2.333h2.334v-2.334zM35 53.06h-2.333v2.333H35v-2.334zm0 4.666h-2.333v2.333H35v-2.333zm2.333-2.334H35v2.334h2.333v-2.334zm-4.666 0h-2.334v2.334h2.334v-2.334zm-19.834-42H10.5v2.333h2.333v-2.333zm0 4.667H10.5v2.333h2.333V18.06zm2.333-2.334h-2.333v2.334h2.333v-2.334zm-4.666 0H8.166v2.334H10.5v-2.334z"/><path fill="var(--color1, #212121)" d="M54.063 30.974a3.887 3.887 0 00-2.579-1.539l-.02-.002a3.873 3.873 0 00-2.938.776l.009-.007-2.741 2.099-4.151 3.1-2.97-1.184c5.296-2.376 8.998-7.674 8.998-13.825 0-8.363-6.83-15.167-15.227-15.167s-15.228 6.804-15.228 15.167c0 3.031.907 5.85 2.45 8.222l-6.056-.053c-.019 0-.034.01-.051.01-.124.006-.24.031-.348.072l.008-.003c-.028.01-.057.016-.084.029-.014.006-.028.007-.042.014l-7.072 3.491c-.001 0-.003 0-.003.002l-4.141 1.991a.942.942 0 00-.141.079l.003-.002a3.896 3.896 0 00-1.297 5.044l-.01-.021a3.9 3.9 0 002.283 1.936l.027.008a3.82 3.82 0 001.176.182 3.87 3.87 0 001.861-.473l-.02.01 3.036-1.614 4.952-2.558 2.968-.017L4.811 48.587c0 .002-.002.002-.003.003L1.88 51.506a3.595 3.595 0 00-1.073 2.567v.011-.001a3.647 3.647 0 003.647 3.64h.005c.936 0 1.869-.355 2.582-1.062l2.875-2.863 3.808-2.843 1.97 1.962-6.785 6.756a3.595 3.595 0 00-1.073 2.567v.01c0 .973.38 1.889 1.073 2.579a3.638 3.638 0 002.573 1.061h.008c.935 0 1.87-.354 2.582-1.061l9.818-9.783c.015-.014.035-.019.049-.034l11.3-12.377 7.593 1.08c.055.008.11.012.165.012.14 0 .277-.034.41-.084.038-.014.071-.033.108-.051.042-.021.086-.033.126-.06l7.029-4.666c.026-.018.04-.046.064-.065.028-.022.063-.031.089-.056l2.78-2.605a3.883 3.883 0 001.234-2.843c0-.875-.289-1.683-.776-2.333l.007.01zM4.66 38.872a1.548 1.548 0 01-1.232.11l.011.003a1.568 1.568 0 01-1.102-1.495c0-.515.249-.972.633-1.257l.004-.003 2.874-1.383.692 2.022.29.85-2.17 1.153zm7.65-3.998l-3.387 1.75-.558-1.633-.402-1.174 4.434-2.189-.087 3.246zm33.03-14.482c0 2.009-.48 3.904-1.31 5.599l-9.147-4.155a4.07 4.07 0 00-1.711-3.026l-.013-.009 3.203-10.633c5.2 1.655 8.978 6.507 8.978 12.224zm-25.788 0c0-7.076 5.784-12.834 12.894-12.834.553 0 1.094.047 1.63.115L30.943 18.07c-.042 0-.081-.013-.125-.013h-.002a4.094 4.094 0 00-4.094 4.083v.001a4.096 4.096 0 004.095 4.083h.001c1.52 0 2.832-.838 3.54-2.066l8.45 3.838c-2.352 3.165-6.114 5.228-10.362 5.228-7.11 0-12.894-5.757-12.894-12.833zm13.03 1.75a1.76 1.76 0 01-1.764 1.75h-.003a1.759 1.759 0 01-1.759-1.75c0-.965.79-1.75 1.762-1.75s1.763.785 1.763 1.75zM5.391 55.007c-.24.238-.571.385-.936.385-.364 0-.694-.146-.934-.383a1.295 1.295 0 010-1.846l2.105-2.097 1.864 1.855-2.097 2.088zm7.03 8.167c-.24.238-.571.385-.936.385-.364 0-.694-.146-.934-.383a1.295 1.295 0 010-1.846l2.106-2.098 1.863 1.854-2.099 2.09zm7.616-7.588l-.003.003-3.86 3.85-1.864-1.854 3.861-3.843c.087-.088.142-.193.196-.297.015-.03.044-.056.057-.087.036-.09.042-.187.056-.281.007-.054.03-.104.03-.16 0-.077-.028-.153-.044-.23-.014-.07-.014-.141-.041-.209a1.17 1.17 0 00-.201-.302l.001.001c-.022-.026-.03-.058-.054-.083h-.002s0-.003-.002-.005l-3.515-3.5c-.037-.037-.085-.052-.127-.084a1.113 1.113 0 00-.184-.123l-.006-.003a1.059 1.059 0 00-.197-.068l-.007-.002a1.109 1.109 0 00-.221-.044h-.005l-.05-.001c-.056 0-.111.004-.165.012l.006-.001c-.078.01-.151.02-.227.045-.074.023-.139.06-.206.098-.044.024-.093.033-.133.063l-3.88 2.896-1.97-1.963 5.248-5.22 9.538 9.382-2.029 2.01zm14.917-15.349c-.034-.005-.066.008-.1.006a1.017 1.017 0 00-.259.015l.007-.001a1.067 1.067 0 00-.408.153l.005-.003c-.065.04-.124.081-.181.134-.028.024-.062.036-.088.064L23.654 51.861l-9.468-9.311 6.197-6.165a1.168 1.168 0 00-.827-1.993h-.003l-4.854.028.061-3.516 6.79.058a15.156 15.156 0 0010.89 4.596h.007c.957 0 1.89-.1 2.799-.268.087.07.174.14.283.185l5.272 2.1.333 1.659.39 1.937-6.569-.935zm8.84.39l-.685-3.408 3.164-2.363 2.07 2.749-4.55 3.022zm8.21-6.193l-1.832 1.717-2.037-2.704 1.818-1.394c.34-.261.768-.368 1.188-.313a1.574 1.574 0 011.358 1.553c0 .45-.19.855-.494 1.14l-.001.001z"/><path fill="var(--color1, #212121)" d="M29.755 40.565l-4.688-4.667a1.163 1.163 0 00-1.646 0l-4.687 4.667a1.169 1.169 0 000 1.654l4.686 4.667a1.164 1.164 0 001.648-.001l4.688-4.667a1.164 1.164 0 000-1.654zm-5.51 3.848l-3.034-3.02 3.033-3.021 3.035 3.02-3.035 3.02zm13.302-33.321l-.564 2.266c.156.039 3.801.988 3.801 4.7h2.334c0-4.412-3.644-6.486-5.571-6.966zm5.571 9.3h-2.334v2.333h2.334v-2.333z"/></symbol><symbol id="icon-clock" viewBox="0 0 70 70"><path fill="var(--color1, #212121)" d="M68.461 33.471C68.458 14.982 53.466-.004 34.975 0 16.485.004 1.5 14.996 1.504 33.486c.004 14.848 9.673 27.437 23.058 31.817l.237.067c.133.042.27.063.41.063.263 0 .521-.071.748-.205.296-.175.516-.453.62-.78l8.454-26.797a4.184 4.184 0 10-1.861-7.939l.025-.011L22.026 18.53a1.396 1.396 0 00-1.972 1.973l11.163 11.176a4.046 4.046 0 00-.419 1.806c0 1.316.619 2.487 1.583 3.238l.009.007-8.055 25.535C8.415 56.4.263 38.74 6.127 22.82 11.992 6.9 29.651-1.252 45.572 4.613c15.92 5.864 24.072 23.524 18.207 39.444-2.942 7.834-8.757 14.014-16.13 17.365l-.193.078-.87-4.1a1.396 1.396 0 00-2.295-.751l.001-.001-8.393 7.494a1.394 1.394 0 00.495 2.369l.01.003 10.716 3.42a1.394 1.394 0 001.789-1.629l.002.009-.855-4.022c12.092-5.194 20.406-17 20.406-30.749v-.075.004zm-33.478-1.394a1.396 1.396 0 010 2.79 1.396 1.396 0 010-2.79zm4.594 32.515l4.778-4.262 1.319 6.213-6.097-1.951z"/><path fill="var(--color2, #2196f3)" d="M33.588 6.967v2.79a1.396 1.396 0 002.79 0v-2.79a1.396 1.396 0 00-2.79 0zM8.479 32.077a1.396 1.396 0 000 2.79h2.79a1.396 1.396 0 000-2.79h-2.79zm53.008 2.79a1.396 1.396 0 000-2.79h-2.79a1.396 1.396 0 000 2.79h2.79z"/></symbol><symbol id="icon-diagram" viewBox="0 0 70 70"><path fill="var(--color2, #2196f3)" d="M32.65 32.735h2.332V43.23H32.65V32.735zm9.328 4.665h2.332v5.83h-2.332V37.4zm-18.657 3.498h2.332v2.332h-2.332v-2.332zm-6.996-1.167h2.332v3.498h-2.332v-3.498z"/><path fill="var(--color1, #212121)" d="M3.498 61.886h55.971a3.498 3.498 0 003.498-3.498v-4.664a3.498 3.498 0 00-3.498-3.498h-1.166v-29.08l6.623-6.274a3.518 3.518 0 10-1.624-1.647l-.009-.021-4.99 4.73v-2.69a3.498 3.498 0 00-3.498-3.498H8.162a3.498 3.498 0 00-3.498 3.498v34.982H3.498A3.498 3.498 0 000 53.724v4.664a3.498 3.498 0 003.498 3.498zM66.465 10.58a1.166 1.166 0 110 2.332 1.166 1.166 0 110-2.332zM6.996 15.244c0-.644.522-1.166 1.166-1.166h46.643c.644 0 1.166.522 1.166 1.166v4.897l-2.332 2.216v-4.78c0-.645-.523-1.167-1.167-1.167H10.495c-.644 0-1.167.522-1.167 1.166v29.152c0 .644.523 1.166 1.167 1.166h41.977c.645 0 1.167-.522 1.167-1.166V25.565l2.332-2.21v26.87H6.996v-34.98zm10.495 15.159h-.01a3.498 3.498 0 102.433 6.011l-.001.001 4.053 2.034a1.167 1.167 0 001.392-.268l8.616-9.694 8.47 6.347c.455.34 1.089.304 1.501-.086l7.361-6.973v17.787H11.661v-26.82h39.645v5.82l-8.25 7.813-8.54-6.403a1.163 1.163 0 00-1.571.156l-.001.001-8.734 9.828-3.265-1.633c.023-.14.038-.281.044-.423a3.498 3.498 0 00-3.498-3.498zm1.166 3.498a1.166 1.166 0 11-2.332 0 1.166 1.166 0 112.332 0zm6.996 18.657h11.66v1.166c0 .644-.521 1.166-1.165 1.166h-9.329a1.166 1.166 0 01-1.166-1.166v-1.166zm-23.32 1.166c0-.644.521-1.166 1.165-1.166h19.823v1.166a3.498 3.498 0 003.498 3.498h9.329a3.498 3.498 0 003.498-3.498v-1.166h19.823c.644 0 1.166.522 1.166 1.166v4.664c0 .644-.522 1.166-1.166 1.166H3.499h-.001a1.166 1.166 0 01-1.166-1.166v-4.664z"/></symbol><symbol id="icon-instagram" viewBox="0 0 20 20"><path d="M19.98 5.88c-.046-1.063-.218-1.793-.464-2.426a4.897 4.897 0 00-1.156-1.773l-.001-.001A4.943 4.943 0 0016.623.538l-.034-.011C15.952.281 15.226.11 14.163.063 13.093.012 12.753 0 10.037 0S6.982.012 5.915.059C4.853.105 4.122.277 3.49.523a4.91 4.91 0 00-1.774 1.156l-.001.001A4.94 4.94 0 00.574 3.416l-.011.034C.316 4.087.145 4.813.098 5.876c-.051 1.07-.063 1.41-.063 4.126s.012 3.055.059 4.122c.047 1.063.219 1.793.465 2.426.267.694.66 1.286 1.155 1.773l.001.001a4.92 4.92 0 001.77 1.152c.637.247 1.364.419 2.426.465 1.067.047 1.407.059 4.122.059s3.056-.012 4.122-.059c1.063-.046 1.793-.218 2.426-.464a5.148 5.148 0 002.915-2.892l.012-.035c.246-.637.418-1.364.465-2.426.047-1.067.058-1.407.058-4.122s-.004-3.055-.05-4.122zm-1.8 8.166c-.044.977-.208 1.504-.344 1.856a3.337 3.337 0 01-1.877 1.89l-.023.008c-.35.137-.882.301-1.855.344-1.055.047-1.371.059-4.04.059s-2.989-.012-4.04-.059c-.977-.043-1.504-.207-1.856-.344a3.085 3.085 0 01-1.147-.745l-.001-.001a3.123 3.123 0 01-.74-1.127l-.007-.021c-.136-.352-.3-.883-.343-1.856-.047-1.055-.059-1.372-.059-4.04s.012-2.99.059-4.04c.043-.977.207-1.504.343-1.856.168-.451.424-.836.749-1.148L3 2.965a3.107 3.107 0 011.129-.739l.021-.007c.35-.137.882-.3 1.855-.344 1.055-.046 1.372-.058 4.04-.058 2.672 0 2.989.012 4.04.058.977.043 1.504.207 1.856.344.433.16.828.414 1.148.746.332.325.586.715.747 1.15.136.35.3.882.343 1.855.047 1.055.059 1.371.059 4.04s-.012 2.98-.059 4.036z"/><path d="M10.037 4.864A5.14 5.14 0 004.9 10.002v.001a5.14 5.14 0 105.139-5.139h-.001zm0 8.47a3.333 3.333 0 110-6.666h.001a3.333 3.333 0 110 6.666zm6.541-8.673a1.2 1.2 0 11-2.4 0 1.2 1.2 0 112.4 0z"/></symbol><symbol id="icon-twitter" viewBox="0 0 20 20"><path d="M20 3.799a8.33 8.33 0 01-2.32.643l-.043.004a4.097 4.097 0 001.796-2.237l.008-.029a8.027 8.027 0 01-2.547.983l-.053.009A4.099 4.099 0 009.75 5.974v.002c0 .325.027.638.095.935-3.409-.166-6.425-1.8-8.451-4.288a4.072 4.072 0 00-.564 2.07v.001c0 1.42.732 2.679 1.821 3.407A4.025 4.025 0 01.78 7.586l.02.011v.045a4.12 4.12 0 003.258 4.025l.027.005c-.312.085-.67.134-1.039.134h-.038.002c-.262 0-.527-.015-.776-.07.531 1.624 2.038 2.818 3.831 2.856a8.184 8.184 0 01-5.076 1.75H.942c-.332 0-.659-.021-.98-.062l.038.004a11.429 11.429 0 006.252 1.84h.04-.002c7.545 0 11.67-6.25 11.67-11.668 0-.18-.006-.356-.015-.53a8.24 8.24 0 002.036-2.097L20 3.8z"/></symbol><symbol id="icon-facebook" viewBox="0 0 20 20"><path d="M13.33 3.32h1.827V.14C14.387.051 13.494 0 12.59 0h-.098.005C9.864 0 8.06 1.656 8.06 4.7v2.8H5.156v3.555H8.06V20h3.562v-8.944h2.787l.443-3.555h-3.231V5.05c0-1.027.277-1.73 1.709-1.73z"/></symbol><symbol id="icon-linkedin" viewBox="0 0 20 20"><path d="M19.995 20H20v-7.336c0-3.588-.772-6.352-4.967-6.352-2.017 0-3.37 1.106-3.923 2.156h-.058V6.647H7.074v13.352h4.142v-6.611c0-1.741.33-3.425 2.486-3.425 2.124 0 2.156 1.987 2.156 3.536V20h4.137zM.33 6.647h4.147V20H.33V6.647zM2.402 0A2.401 2.401 0 000 2.402c0 1.325 1.076 2.424 2.402 2.424s2.401-1.098 2.401-2.424A2.403 2.403 0 002.402 0z"/></symbol><symbol id="icon-close" viewBox="0 0 11 11"><path d="M11 1.108l-1.108-1.108-4.392 4.392-4.392-4.392-1.108 1.108 4.392 4.392-4.392 4.392 1.108 1.108 4.392-4.392 4.392 4.392 1.108-1.108-4.392-4.392 4.392-4.392z"></path></symbol><symbol id="icon-send" viewBox="0 0 24 24"><path d="M24 0l-24 13.5 7.67 2.84 11.83-11.090-8.998 12.14 0.007 0.002-0.009-0.002v6.61l4.301-5.018 5.45 2.018 3.749-21z"></path></symbol><symbol id="icon-user" viewBox="0 0 18 18"><path d="M9 9c1.657 0 3-1.343 3-3s-1.343-3-3-3v0c-1.657 0-3 1.343-3 3s1.343 3 3 3v0zM9 10.5c-2.003 0-6 1.005-6 3v0.75c0 0.412 0.337 0.75 0.75 0.75h10.5c0.412 0 0.75-0.338 0.75-0.75v-0.75c0-1.995-3.998-3-6-3z"></path></symbol><symbol id="icon-phone" viewBox="0 0 18 18"><path d="M13.996 11.123l-1.838-0.21c-0.051-0.006-0.109-0.010-0.169-0.010-0.398 0-0.758 0.161-1.018 0.422l-1.332 1.332c-2.064-1.065-3.704-2.706-4.74-4.709l-0.029-0.061 1.34-1.337c0.261-0.261 0.422-0.621 0.422-1.018 0-0.059-0.004-0.118-0.011-0.176l0.001 0.007-0.21-1.824c-0.087-0.724-0.698-1.28-1.438-1.28-0.001 0-0.001 0-0.002 0h-1.252c-0.818 0-1.498 0.68-1.448 1.497 0.384 6.18 5.327 11.116 11.5 11.5 0.817 0.050 1.498-0.63 1.498-1.448v-1.252c0-0.002 0-0.004 0-0.007 0-0.736-0.554-1.342-1.267-1.424l-0.007-0.001z"></path></symbol><symbol id="icon-email" viewBox="0 0 18 18"><path d="M15 3h-12c-0.825 0-1.492 0.675-1.492 1.5l-0.008 9c0 0.825 0.675 1.5 1.5 1.5h12c0.825 0 1.5-0.675 1.5-1.5v-9c0-0.825-0.675-1.5-1.5-1.5zM14.7 6.188l-5.302 3.314c-0.113 0.071-0.251 0.113-0.398 0.113s-0.285-0.042-0.401-0.115l0.003 0.002-5.302-3.314c-0.189-0.113-0.313-0.316-0.313-0.549 0-0.352 0.285-0.637 0.637-0.637 0.131 0 0.252 0.039 0.354 0.107l-0.002-0.001 5.025 3.142 5.025-3.143c0.099-0.066 0.22-0.106 0.351-0.106 0.352 0 0.637 0.285 0.637 0.637 0 0.232-0.124 0.436-0.31 0.547l-0.003 0.002z"></path></symbol><symbol id="icon-check" viewBox="0 0 34 32"><path fill="#2196f3" style="fill: var(--color1, #2196f3)" d="M4.267 0h25.6c2.356 0 4.267 1.91 4.267 4.267v23.467c0 2.356-1.91 4.267-4.267 4.267h-25.6c-2.356 0-4.267-1.91-4.267-4.267v-23.467c0-2.356 1.91-4.267 4.267-4.267z"></path><path fill="#fff" stroke="#fff" stroke-width="0.4267" stroke-miterlimit="4" stroke-linecap="butt" stroke-linejoin="miter" style="fill: var(--color2, #fff); stroke: var(--color2, #fff)" d="M8.442 16.537l-0.147-0.14-2.205 2.088 7.767 7.41 16.318-15.567-2.19-2.089-14.128 13.465-5.416-5.167z"></path></symbol><symbol id="icon-emty" viewBox="0 0 34 32"><path d="M30.341 3.556v24.889h-26.548v-24.889h26.548zM30.341 0h-26.548c-2.086 0-3.793 1.6-3.793 3.556v24.889c0 1.956 1.707 3.556 3.793 3.556h26.548c2.086 0 3.793-1.6 3.793-3.556v-24.889c0-1.956-1.707-3.556-3.793-3.556z"></path></symbol><symbol id="icon-menu" viewBox="0 0 32 32"><path d="M6.4 11.734v-2.134h19.2v2.134h-19.2zM6.4 17.066h19.2v-2.133h-19.2v2.133zM6.4 22.4h19.2v-2.134h-19.2v2.134z"></path></symbol><symbol id="icon-mobile-close" viewBox="0 0 32 32"><path d="M23.734 10.304l-1.504-1.504-5.963 5.962-5.962-5.962-1.504 1.504 5.962 5.962-5.962 5.963 1.504 1.504 5.962-5.963 5.963 5.963 1.504-1.504-5.963-5.963 5.963-5.962z"></path></symbol></defs></svg>